<?xml version="1.0" encoding="utf-8"?>
<!-- Generator: Adobe Illustrator 27.5.0, SVG Export Plug-In . SVG Version: 6.00 Build 0)  -->
<svg version="1.1" id="Layer_1" xmlns="http://www.w3.org/2000/svg" xmlns:xlink="http://www.w3.org/1999/xlink" x="0px"
	y="0px" viewBox="0 0 512 512" style="enable-background:new 0 0 512 512;" xml:space="preserve">
	<g>
		<path d="M320.08,213.95c-8.72,2.24-15.92,3.44-23.28,6.08c-5.84,1.52-11.76,3.12-18.56,4.88l-0.48,0.08
    c-3.36,0.96-3.68,1.04-6.8-2.56c-3.76-4.24-6.48-6.96-11.68-9.52c-15.76-7.68-30.96-5.44-45.12,3.76
    c-16.96,10.96-25.68,27.2-25.44,47.36c0.24,20,13.92,36.4,32.96,39.12c17.6,2.24,31.84-3.68,43.04-16.4
    c1.68-2.08,3.2-4.24,4.88-6.64c0.64-0.8,1.2-1.68,1.84-2.64h-48.08c-5.2,0-6.48-3.2-4.72-7.44c3.2-7.76,9.2-20.72,12.72-27.2
    c0.72-1.44,2.48-4.64,5.52-4.64h80.88c3.6-10.72,9.44-21.52,17.28-31.76c18.16-23.92,39.44-36.4,69.76-41.6
    c25.44-4.48,49.36-2,71.12,12.72c19.68,13.44,31.84,31.68,35.12,55.6c4.24,33.68-5.52,61.04-29.36,84.48
    c-15.76,16.72-35.92,27.2-59.12,31.92c-4.48,0.8-8.88,1.2-13.2,1.6c-2.32,0.16-4.56,0.4-6.8,0.64
    c-22.64-0.48-43.36-6.96-60.8-21.92c-12.24-10.64-20.72-23.68-24.88-38.8c-2.96,5.84-6.4,11.52-11.2,16.88
    c-17.28,23.68-40.72,38.4-70.32,42.32c-24.48,3.28-47.12-1.44-67.12-16.4c-18.4-14-28.88-32.4-31.6-55.36
    c-3.28-27.2,4.72-52.32,21.12-73.04c17.76-23.2,41.2-37.92,69.84-43.12c23.44-4.96,45.84-1.52,66.08,12.24
    c13.2,8.72,22.64,20.64,28.88,35.12C324.08,211.95,323.04,213.23,320.08,213.95z M38.64,218.43c-1,0-1.25-0.48-0.75-1.28l5.24-6.72
    c0.5-0.72,1.74-1.2,2.74-1.2h89.01c0.96,0,1.2,0.72,0.72,1.44l-4.24,6.48c-0.48,0.8-1.76,1.52-2.48,1.52L38.64,218.43z M1,241.39
    c-1,0-1.25-0.56-0.75-1.28l5.23-6.72c0.5-0.72,1.75-1.28,2.74-1.28h113.7c0.96,0,1.44,0.8,1.2,1.52l-2,6
    c-0.24,0.96-1.2,1.52-2.24,1.52L1,241.39z M60.58,262.83c-0.5,0.72-0.25,1.44,0.74,1.44l54.36,0.24c0.72,0,1.76-0.72,1.76-1.68
    l0.48-6c0-1.04-0.48-1.76-1.52-1.76H66.56c-1,0-1.99,0.72-2.5,1.52L60.58,262.83z M461.76,248.43c-0.16-2.08-0.24-3.84-0.56-5.6
    c-4.48-24.64-27.2-38.64-50.88-33.12c-23.2,5.2-38.16,19.92-43.6,43.36c-4.48,19.44,4.96,39.12,22.88,47.12
    c13.76,6,27.44,5.28,40.64-1.52c19.68-10.88,30.4-26.16,31.68-47.6C461.84,250.11,461.84,249.23,461.76,248.43z"
			fill="#ffffff" />
	</g>
</svg>